<svg id="visual" viewBox="0 0 675 900" width="675" height="900" xmlns="http://www.w3.org/2000/svg" xmlns:xlink="http://www.w3.org/1999/xlink" version="1.1"><rect x="0" y="0" width="675" height="900" fill="#F0FDFA"></rect><defs><linearGradient id="grad1_0" x1="0%" y1="100%" x2="100%" y2="0%"><stop offset="30%" stop-color="#f0fdfa" stop-opacity="1"></stop><stop offset="70%" stop-color="#f0fdfa" stop-opacity="1"></stop></linearGradient></defs><defs><linearGradient id="grad2_0" x1="0%" y1="100%" x2="100%" y2="0%"><stop offset="30%" stop-color="#f0fdfa" stop-opacity="1"></stop><stop offset="70%" stop-color="#f0fdfa" stop-opacity="1"></stop></linearGradient></defs><g transform="translate(675, 900)"><path d="M-253.1 0C-251.8 -53.4 -250.4 -106.8 -219.2 -126.6C-188 -146.4 -127 -132.6 -85.5 -148.1C-44 -163.6 -22 -208.4 0 -253.1L0 0Z" fill="#96F7E4"></path></g><g transform="translate(0, 0)"><path d="M253.1 0C252.7 55 252.3 110 219.2 126.6C186.2 143.1 120.5 121.3 78.5 136C36.5 150.7 18.3 201.9 0 253.1L0 0Z" fill="#96F7E4"></path></g></svg>