<svg id="visual" viewBox="0 0 960 540" width="960" height="540" xmlns="http://www.w3.org/2000/svg" xmlns:xlink="http://www.w3.org/1999/xlink" version="1.1"><rect x="0" y="0" width="960" height="540" fill="#F0FDFA"></rect><defs><linearGradient id="grad1_0" x1="43.8%" y1="100%" x2="100%" y2="0%"><stop offset="14.444444444444446%" stop-color="#f0fdfa" stop-opacity="1"></stop><stop offset="85.55555555555554%" stop-color="#f0fdfa" stop-opacity="1"></stop></linearGradient></defs><defs><linearGradient id="grad2_0" x1="0%" y1="100%" x2="56.3%" y2="0%"><stop offset="14.444444444444446%" stop-color="#f0fdfa" stop-opacity="1"></stop><stop offset="85.55555555555554%" stop-color="#f0fdfa" stop-opacity="1"></stop></linearGradient></defs><g transform="translate(960, 540)"><path d="M-243 0C-232.3 -39.7 -221.6 -79.5 -202.6 -117C-183.7 -154.5 -156.6 -189.8 -121.5 -210.4C-86.4 -231.1 -43.2 -237 0 -243L0 0Z" fill="#96F7E4"></path></g><g transform="translate(0, 0)"><path d="M243 0C240.8 49.6 238.5 99.3 210.4 121.5C182.3 143.7 128.4 138.5 89 154.2C49.6 169.8 24.8 206.4 0 243L0 0Z" fill="#96F7E4"></path></g></svg>